<?xml version="1.0" standalone="no"?>
<!DOCTYPE svg PUBLIC "-//W3C//DTD SVG 20010904//EN"
 "http://www.w3.org/TR/2001/REC-SVG-20010904/DTD/svg10.dtd">
<svg version="1.0" xmlns="http://www.w3.org/2000/svg"
 width="200.000000pt" height="200.000000pt" viewBox="0 0 200.000000 200.000000"
 preserveAspectRatio="xMidYMid meet">
<metadata>
Created by potrace 1.14, written by Peter Selinger 2001-2017
</metadata>
<g transform="translate(0.000000,200.000000) scale(0.100000,-0.100000)"
fill="#000000" stroke="none">
<path d="M932 1983 c-89 -49 -174 -184 -228 -359 -22 -72 -28 -83 -42 -75 -17
9 -102 27 -172 37 -55 8 -171 8 -221 0 -56 -8 -120 -48 -144 -89 -55 -93 15
-262 179 -435 28 -30 51 -58 51 -62 0 -5 -23 -33 -51 -62 -196 -206 -250 -388
-140 -480 66 -55 235 -67 406 -29 52 12 99 21 105 21 7 0 17 -23 24 -52 16
-73 78 -214 119 -273 71 -104 168 -147 244 -111 84 40 164 158 218 318 17 49
30 96 30 105 0 16 5 16 110 -7 227 -49 399 -21 455 73 23 38 22 118 -1 177
-25 66 -95 168 -170 249 l-66 72 54 57 c207 218 258 405 134 490 -77 52 -222
61 -396 23 -52 -12 -99 -21 -105 -21 -6 0 -19 30 -28 68 -22 81 -106 256 -141
294 -77 81 -158 107 -224 71z m147 -181 c38 -60 63 -117 94 -215 l25 -78 -31
-14 c-18 -8 -63 -27 -100 -43 l-68 -29 -90 38 c-49 22 -93 39 -99 39 -13 0 25
129 61 208 38 85 76 140 108 156 33 18 59 2 100 -62z m-563 -347 c43 -8 92
-20 110 -25 30 -10 31 -12 24 -53 -4 -23 -11 -69 -14 -102 -3 -32 -9 -62 -14
-66 -20 -19 -158 -119 -164 -119 -14 0 -124 123 -174 196 -29 41 -59 127 -51
147 14 37 151 47 283 22z m1207 4 c21 -5 41 -17 44 -25 9 -24 -13 -85 -56
-151 -40 -62 -157 -193 -172 -193 -5 0 -33 19 -62 43 -30 23 -65 51 -80 62
-27 20 -29 29 -42 150 -4 33 -9 63 -11 67 -6 9 84 36 145 44 25 3 48 8 50 10
9 8 148 3 184 -7z m-879 -108 c2 -3 -13 -16 -35 -28 l-39 -21 0 32 c0 18 3 35
6 39 6 6 62 -11 68 -22z m382 5 c12 -49 3 -57 -40 -31 l-38 23 28 16 c39 21
43 20 50 -8z m-155 -121 c60 -21 104 -58 136 -113 24 -40 28 -58 28 -122 0
-81 -12 -112 -61 -166 -44 -48 -96 -73 -161 -80 -137 -15 -261 94 -268 235
-10 173 163 303 326 246z m-448 -235 c-1 -23 -3 -44 -5 -45 -2 -2 -16 8 -33
21 l-30 24 30 24 c16 13 32 23 35 21 3 -2 5 -22 3 -45z m817 2 c2 -2 -9 -14
-25 -27 -35 -27 -44 -17 -37 41 l4 35 27 -23 c14 -13 28 -24 31 -26z m-890
-154 c44 -33 80 -68 81 -77 0 -9 2 -25 4 -36 2 -11 7 -42 10 -70 3 -27 8 -57
10 -66 6 -19 -2 -23 -93 -44 -145 -34 -314 -28 -329 11 -16 43 60 177 160 281
33 35 64 63 68 63 5 0 44 -28 89 -62z m1048 10 c107 -111 180 -234 168 -283
-9 -35 -69 -49 -181 -41 -94 6 -210 30 -231 47 -8 6 -9 21 -4 47 5 20 11 64
14 96 3 33 9 63 13 67 20 18 159 119 164 119 4 0 29 -24 57 -52z m-749 -205
c7 -5 -63 -31 -71 -27 -5 3 -8 21 -8 39 l0 34 38 -21 c20 -12 39 -23 41 -25z
m379 7 c-1 -22 -3 -40 -5 -40 -2 0 -20 7 -41 15 l-37 16 40 24 c22 12 41 24
43 24 2 1 2 -17 0 -39z m-113 -132 c91 -37 88 -27 48 -148 -35 -103 -76 -183
-118 -225 -34 -33 -37 -34 -63 -21 -50 26 -97 107 -148 256 -18 52 -30 98 -28
101 2 4 41 21 86 39 46 18 87 37 92 41 5 4 18 4 30 -1 11 -5 57 -24 101 -42z"/>
<path d="M945 1114 c-90 -31 -112 -135 -42 -203 28 -29 42 -34 89 -34 35 0 78
26 98 58 62 100 -34 218 -145 179z"/>
<path d="M473 1887 c-15 -32 -33 -48 -69 -66 l-48 -24 47 -21 c39 -17 51 -30
71 -71 l24 -50 23 48 c19 38 33 53 67 68 48 22 47 33 -8 55 -28 11 -42 26 -55
55 -10 22 -21 42 -25 44 -4 2 -16 -15 -27 -38z"/>
<path d="M460 267 c-17 -32 -34 -49 -64 -61 l-41 -18 47 -24 c35 -18 50 -33
59 -59 7 -19 16 -35 19 -35 4 0 15 18 26 40 14 28 30 44 57 55 20 8 37 17 37
20 0 2 -18 14 -40 25 -27 14 -45 33 -58 61 l-19 40 -23 -44z"/>
<path d="M1430 301 c0 -5 10 -35 22 -66 l21 -57 -21 -67 c-12 -37 -22 -70 -22
-74 0 -3 31 5 68 19 l68 25 67 -24 c37 -14 67 -21 67 -18 0 4 -10 36 -21 70
l-22 64 23 64 c12 35 21 66 18 68 -2 2 -33 -6 -68 -19 l-64 -23 -66 23 c-75
28 -70 27 -70 15z"/>
</g>
</svg>
